<?xml version="1.0" encoding="UTF-8" standalone="no"?>
<!-- Created with Inkscape (http://www.inkscape.org/) -->

<svg
   xmlns:dc="http://purl.org/dc/elements/1.1/"
   xmlns:cc="http://creativecommons.org/ns#"
   xmlns:rdf="http://www.w3.org/1999/02/22-rdf-syntax-ns#"
   xmlns:svg="http://www.w3.org/2000/svg"
   xmlns="http://www.w3.org/2000/svg"
   xmlns:sodipodi="http://sodipodi.sourceforge.net/DTD/sodipodi-0.dtd"
   xmlns:inkscape="http://www.inkscape.org/namespaces/inkscape"
   width="84.666664mm"
   height="84.666664mm"
   viewBox="0 0 299.99999 299.99999"
   id="svg2"
   version="1.1"
   inkscape:version="0.91 r13725"
   sodipodi:docname="logo.svg">
  <defs
     id="defs4" />
  <sodipodi:namedview
     id="base"
     pagecolor="#ffffff"
     bordercolor="#666666"
     borderopacity="1.0"
     inkscape:pageopacity="0.0"
     inkscape:pageshadow="2"
     inkscape:zoom="1.0648113"
     inkscape:cx="188.99036"
     inkscape:cy="173.26834"
     inkscape:document-units="px"
     inkscape:current-layer="layer2"
     showgrid="false"
     inkscape:window-width="1680"
     inkscape:window-height="930"
     inkscape:window-x="0"
     inkscape:window-y="0"
     inkscape:window-maximized="1"
     fit-margin-top="0"
     fit-margin-left="0"
     fit-margin-right="0"
     fit-margin-bottom="0" />
  <metadata
     id="metadata7">
    <rdf:RDF>
      <cc:Work
         rdf:about="">
        <dc:format>image/svg+xml</dc:format>
        <dc:type
           rdf:resource="http://purl.org/dc/dcmitype/StillImage" />
        <dc:title></dc:title>
      </cc:Work>
    </rdf:RDF>
  </metadata>
  <g
     inkscape:groupmode="layer"
     id="layer2"
     inkscape:label="Calque 2"
     style="display:inline;opacity:1"
     transform="translate(-1.6873779e-5,-752.36221)">
    <g
       id="g4181"
       transform="matrix(-1.2079175,0,0,1.2079175,601.93869,515.76004)">
      <rect
         inkscape:export-ydpi="23.192017"
         inkscape:export-xdpi="23.192017"
         ry="0"
         rx="0"
         y="195.8761"
         x="249.96631"
         height="248.36133"
         width="248.36133"
         id="rect4158"
         style="opacity:1;fill:#000000;fill-opacity:1;stroke:none;stroke-width:6.80000019;stroke-linecap:round;stroke-linejoin:round;stroke-miterlimit:4;stroke-dasharray:none;stroke-opacity:1" />
      <path
         inkscape:export-ydpi="23.192017"
         inkscape:export-xdpi="23.192017"
         id="path4147"
         d="m 453.85156,290.97266 c -8.6446,-0.31665 -21.19531,4.9707 -21.19531,4.9707 -12.30469,4.88281 -24.06251,12.86327 -25.23437,14.62109 -1.17188,1.75781 -2.92969,37.30469 -2.92969,37.30469 0,0 9.47199,-20.05966 21.09375,-26.17187 12.93801,-6.80446 32.65367,-15.08284 34.375,-17.96875 3.19608,-5.35841 3.61567,-11.50261 -4.4375,-12.61524 -0.53671,-0.0741 -1.09557,-0.11951 -1.67188,-0.14062 z m -7.375,7.83398 c 1.63822,-0.0601 2.03419,1.55274 -0.1875,1.89453 -2.53906,0.39063 -14.84375,6.73829 -18.75,8.88672 -3.90625,2.14844 -6.15234,5.27344 -6.15234,5.27344 0,0 -0.0891,-2.08177 1.95312,-4.39453 2.86662,-3.24632 20.11718,-10.83984 22.36328,-11.52344 0.28077,-0.0854 0.53941,-0.12814 0.77344,-0.13672 z"
         style="fill:#ffff00;fill-opacity:1;fill-rule:evenodd;stroke:none;stroke-width:1px;stroke-linecap:butt;stroke-linejoin:miter;stroke-opacity:1"
         inkscape:connector-curvature="0" />
      <path
         inkscape:export-ydpi="23.192017"
         inkscape:export-xdpi="23.192017"
         sodipodi:nodetypes="csccccccsssc"
         inkscape:connector-curvature="0"
         id="path4150"
         d="m 462.72319,223.49931 c -0.56078,-0.01 -1.45954,1.10602 -4.04883,2.75781 -1.56332,0.99729 -6.0049,4.26134 -11.11914,7.98242 4.20012,0.775 7.28948,4.9198 7.29492,9.78711 -3.2e-4,5.48167 -3.8844,9.92537 -8.67578,9.92578 -4.79138,-4.1e-4 -8.67546,-4.44411 -8.67578,-9.92578 10e-4,-0.95717 0.12372,-1.90908 0.36328,-2.82617 -1.86926,1.31657 -3.67942,2.57534 -5.25976,3.6289 -1.09539,4.76989 1.46132,15.71764 7.96679,19.09766 7.40402,3.84688 18.75119,-2.14693 23.60352,-9.9668 4.18272,-6.74074 2.76898,-21.38281 0.57031,-26.46093 -1.2353,-2.85308 -1.45875,-3.99007 -2.01953,-4 z"
         style="opacity:1;fill:#ffff00;fill-opacity:1;fill-rule:evenodd;stroke:none;stroke-width:1px;stroke-linecap:butt;stroke-linejoin:miter;stroke-opacity:1" />
      <path
         inkscape:export-ydpi="23.192017"
         inkscape:export-xdpi="23.192017"
         inkscape:connector-curvature="0"
         style="fill:#ffff00;fill-opacity:1;fill-rule:evenodd;stroke:none;stroke-width:1px;stroke-linecap:butt;stroke-linejoin:miter;stroke-opacity:1"
         d="m 291.25582,292.33985 c 8.6446,-0.31665 21.19531,4.9707 21.19531,4.9707 12.30469,4.88281 24.06251,12.86327 25.23437,14.62109 1.17188,1.75781 2.92969,37.30469 2.92969,37.30469 0,0 -9.47199,-20.05966 -21.09375,-26.17187 -12.93801,-6.80446 -32.65367,-15.08284 -34.375,-17.96875 -3.19608,-5.35841 -3.61567,-11.50261 4.4375,-12.61524 0.53671,-0.0741 1.09557,-0.11951 1.67188,-0.14062 z m 7.375,7.83398 c -1.63822,-0.0601 -2.03419,1.55274 0.1875,1.89453 2.53906,0.39063 14.84375,6.73829 18.75,8.88672 3.90625,2.14844 6.15234,5.27344 6.15234,5.27344 0,0 0.0891,-2.08177 -1.95312,-4.39453 -2.86662,-3.24632 -20.11718,-10.83984 -22.36328,-11.52344 -0.28077,-0.0854 -0.53941,-0.12814 -0.77344,-0.13672 z"
         id="path4155" />
      <path
         inkscape:export-ydpi="23.192017"
         inkscape:export-xdpi="23.192017"
         sodipodi:nodetypes="sssscssssascsssccsssc"
         inkscape:connector-curvature="0"
         d="m 347.94648,247.03642 c -10.90281,6.10339 -11.78628,27.14315 -10.71485,35.35743 1.07143,8.21429 -6.4283,36.07114 -4.64258,44.64257 1.78571,8.57143 8.9283,28.21485 17.14258,38.21485 8.21429,10 17.69098,66.42773 22.69124,66.42773 5.00026,0 15.99218,-56.42773 24.20647,-66.42773 8.21428,-10 12.57895,-29.64342 14.36466,-38.21485 1.78572,-8.57143 -5.71401,-36.42828 -4.64258,-44.64257 1.07143,-8.21428 -5.6e-4,-28.92886 -10.71485,-35.35743 -10.71428,-6.42857 -15.29485,-9.45341 -23.84505,-9.4534 -8.5502,0 -12.03515,2.84223 -23.84504,9.4534 z m 1.60937,28.67383 c 0,0 -1.2632,1.45172 -4.41992,3.53516 -3.15673,2.08344 -2.33422,3.47368 -0.75586,4.92578 1.57837,1.45209 4.19709,-2.77784 4.79687,-4.67188 0.59978,-1.89404 0.37891,-3.78906 0.37891,-3.78906 z m 44.47135,0 c 0,0 1.2632,1.45172 4.41992,3.53516 3.15673,2.08344 2.33422,3.47368 0.75586,4.92578 -1.57837,1.45209 -4.19709,-2.77784 -4.79687,-4.67188 -0.59978,-1.89404 -0.37891,-3.78906 -0.37891,-3.78906 z"
         style="fill:#ffa500;fill-opacity:1;fill-rule:evenodd;stroke:none;stroke-width:1px;stroke-linecap:butt;stroke-linejoin:miter;stroke-opacity:1"
         id="path4160" />
      <path
         inkscape:export-ydpi="23.192017"
         inkscape:export-xdpi="23.192017"
         inkscape:connector-curvature="0"
         style="opacity:1;fill:#ffff00;fill-opacity:1;fill-rule:evenodd;stroke:none;stroke-width:1px;stroke-linecap:butt;stroke-linejoin:miter;stroke-opacity:1"
         d="m 280.85988,224.37822 c 0.56078,-0.01 1.45954,1.10602 4.04883,2.75781 1.56332,0.99729 6.0049,4.26134 11.11914,7.98242 a 8.6764355,9.9264364 0 0 0 -7.29492,9.78711 8.6764355,9.9264364 0 0 0 8.67578,9.92578 8.6764355,9.9264364 0 0 0 8.67578,-9.92578 8.6764355,9.9264364 0 0 0 -0.36328,-2.82617 c 1.86926,1.31657 3.67942,2.57534 5.25976,3.6289 1.09539,4.76989 -1.30411,16.03917 -7.96679,19.09766 -7.58623,3.48245 -18.93725,-2.51906 -23.60352,-9.9668 -4.21191,-6.72254 -2.76898,-21.38281 -0.57031,-26.46093 1.2353,-2.85308 1.45875,-3.99007 2.01953,-4 z"
         id="path4163" />
      <path
         inkscape:export-ydpi="23.192017"
         inkscape:export-xdpi="23.192017"
         sodipodi:nodetypes="csssszzzsc"
         inkscape:connector-curvature="0"
         id="path4157"
         d="m 431.34765,255.78018 c 2.53906,4.98047 3.99134,6.62665 8.39844,9.1797 2.38461,1.38141 14.24458,4.79175 23.61605,-7.61719 8.40008,-11.1227 4.28383,-25.78125 3.53237,-29.19922 -0.8253,-3.75384 -4.68749,-9.57031 -1.66014,-7.32422 3.02734,2.2461 5.85936,12.20704 5.17577,21.09376 -0.68359,8.88671 -3.08251,13.96848 -7.61024,19.33593 -4.52774,5.36745 -15.69864,10.39657 -23.15147,6.15234 -7.45283,-4.24423 -8.39844,-9.47265 -8.00781,-10.05859 0.39062,-0.58594 -0.29297,-1.56251 -0.29297,-1.56251 z"
         style="fill:#ffa500;fill-opacity:1;fill-rule:evenodd;stroke:none;stroke-width:1px;stroke-linecap:butt;stroke-linejoin:miter;stroke-opacity:1" />
      <path
         inkscape:export-ydpi="23.192017"
         inkscape:export-xdpi="23.192017"
         style="fill:#ffa500;fill-opacity:1;fill-rule:evenodd;stroke:none;stroke-width:1px;stroke-linecap:butt;stroke-linejoin:miter;stroke-opacity:1"
         d="m 312.30999,256.95206 c -2.53906,4.98047 -3.99134,6.62665 -8.39844,9.1797 -2.38461,1.38141 -14.24458,4.79175 -23.61605,-7.61719 -8.40008,-11.1227 -4.28383,-25.78125 -3.53237,-29.19922 0.8253,-3.75384 4.68749,-9.57031 1.66014,-7.32422 -3.02734,2.2461 -5.85936,12.20704 -5.17577,21.09376 0.68359,8.88671 3.08251,13.96848 7.61024,19.33593 4.52774,5.36745 15.69864,10.39657 23.15147,6.15234 7.45283,-4.24423 8.39844,-9.47265 8.00781,-10.05859 -0.39062,-0.58594 0.29297,-1.56251 0.29297,-1.56251 z"
         id="path4179"
         inkscape:connector-curvature="0"
         sodipodi:nodetypes="csssszzzsc" />
    </g>
  </g>
</svg>
